{
	"asset":{
		"generator":"Khronos glTF Blender I/O v4.0.44",
		"version":"2.0"
	},
	"scene":0,
	"scenes":[
		{
			"name":"Scene",
			"nodes":[
				0
			]
		}
	],
	"nodes":[
		{
			"mesh":0,
			"name":"Eyebrows_Female"
		}
	],
	"materials":[
		{
			"doubleSided":true,
			"name":"MI_Hair_2",
			"normalTexture":{
				"index":0
			},
			"pbrMetallicRoughness":{
				"baseColorTexture":{
					"index":1
				},
				"metallicFactor":0,
				"roughnessFactor":0.7121212482452393
			}
		}
	],
	"meshes":[
		{
			"name":"Eyes.011",
			"primitives":[
				{
					"attributes":{
						"COLOR_0":0,
						"POSITION":1,
						"NORMAL":2,
						"TEXCOORD_0":3,
						"TEXCOORD_1":4,
						"TEXCOORD_2":5,
						"TEXCOORD_3":6
					},
					"indices":7,
					"material":0
				}
			]
		}
	],
	"textures":[
		{
			"sampler":0,
			"source":0
		},
		{
			"sampler":0,
			"source":1
		}
	],
	"images":[
		{
			"mimeType":"image/png",
			"name":"T_Hair_2_Normal",
			"uri":"T_Hair_2_Normal.png"
		},
		{
			"mimeType":"image/png",
			"name":"T_Hair_2_BaseColor",
			"uri":"T_Hair_2_BaseColor.png"
		}
	],
	"accessors":[
		{
			"bufferView":0,
			"componentType":5123,
			"count":912,
			"normalized":true,
			"type":"VEC4"
		},
		{
			"bufferView":1,
			"componentType":5126,
			"count":912,
			"max":[
				0.06299881637096405,
				1.6869006156921387,
				0.0915711298584938
			],
			"min":[
				-0.06299881637096405,
				1.6492890119552612,
				0.05128476396203041
			],
			"type":"VEC3"
		},
		{
			"bufferView":2,
			"componentType":5126,
			"count":912,
			"type":"VEC3"
		},
		{
			"bufferView":3,
			"componentType":5126,
			"count":912,
			"type":"VEC2"
		},
		{
			"bufferView":4,
			"componentType":5126,
			"count":912,
			"type":"VEC2"
		},
		{
			"bufferView":5,
			"componentType":5126,
			"count":912,
			"type":"VEC2"
		},
		{
			"bufferView":6,
			"componentType":5126,
			"count":912,
			"type":"VEC2"
		},
		{
			"bufferView":7,
			"componentType":5123,
			"count":4440,
			"type":"SCALAR"
		}
	],
	"bufferViews":[
		{
			"buffer":0,
			"byteLength":7296,
			"byteOffset":0,
			"target":34962
		},
		{
			"buffer":0,
			"byteLength":10944,
			"byteOffset":7296,
			"target":34962
		},
		{
			"buffer":0,
			"byteLength":10944,
			"byteOffset":18240,
			"target":34962
		},
		{
			"buffer":0,
			"byteLength":7296,
			"byteOffset":29184,
			"target":34962
		},
		{
			"buffer":0,
			"byteLength":7296,
			"byteOffset":36480,
			"target":34962
		},
		{
			"buffer":0,
			"byteLength":7296,
			"byteOffset":43776,
			"target":34962
		},
		{
			"buffer":0,
			"byteLength":7296,
			"byteOffset":51072,
			"target":34962
		},
		{
			"buffer":0,
			"byteLength":8880,
			"byteOffset":58368,
			"target":34963
		}
	],
	"samplers":[
		{
			"magFilter":9729,
			"minFilter":9987
		}
	],
	"buffers":[
		{
			"byteLength":67248,
			"uri":"Eyebrows_Female.bin"
		}
	]
}
