{
	"asset":{
		"generator":"Khronos glTF Blender I/O v4.0.44",
		"version":"2.0"
	},
	"scene":0,
	"scenes":[
		{
			"name":"Scene",
			"nodes":[
				0
			]
		}
	],
	"nodes":[
		{
			"mesh":0,
			"name":"Hair_BuzzedFemale",
			"rotation":[
				0.7071068286895752,
				0,
				0,
				0.7071068286895752
			],
			"scale":[
				0.009999999776482582,
				0.009999999776482582,
				0.009999999776482582
			]
		}
	],
	"materials":[
		{
			"doubleSided":true,
			"name":"MI_Hair_1",
			"normalTexture":{
				"index":0
			},
			"pbrMetallicRoughness":{
				"baseColorTexture":{
					"index":1
				},
				"metallicFactor":0
			}
		}
	],
	"meshes":[
		{
			"name":"Plane.004",
			"primitives":[
				{
					"attributes":{
						"POSITION":0,
						"NORMAL":1,
						"TEXCOORD_0":2
					},
					"indices":3,
					"material":0
				}
			]
		}
	],
	"textures":[
		{
			"sampler":0,
			"source":0
		},
		{
			"sampler":0,
			"source":1
		}
	],
	"images":[
		{
			"mimeType":"image/png",
			"name":"T_Hair_1_Normal",
			"uri":"T_Hair_1_Normal.png"
		},
		{
			"mimeType":"image/png",
			"name":"T_Hair_1_BaseColor",
			"uri":"T_Hair_1_BaseColor.png"
		}
	],
	"accessors":[
		{
			"bufferView":0,
			"componentType":5126,
			"count":466,
			"max":[
				7.933114528656006,
				8.289253234863281,
				-160.07693481445312
			],
			"min":[
				-7.933114528656006,
				-11.47363567352295,
				-177.0924835205078
			],
			"type":"VEC3"
		},
		{
			"bufferView":1,
			"componentType":5126,
			"count":466,
			"type":"VEC3"
		},
		{
			"bufferView":2,
			"componentType":5126,
			"count":466,
			"type":"VEC2"
		},
		{
			"bufferView":3,
			"componentType":5123,
			"count":2490,
			"type":"SCALAR"
		}
	],
	"bufferViews":[
		{
			"buffer":0,
			"byteLength":5592,
			"byteOffset":0,
			"target":34962
		},
		{
			"buffer":0,
			"byteLength":5592,
			"byteOffset":5592,
			"target":34962
		},
		{
			"buffer":0,
			"byteLength":3728,
			"byteOffset":11184,
			"target":34962
		},
		{
			"buffer":0,
			"byteLength":4980,
			"byteOffset":14912,
			"target":34963
		}
	],
	"samplers":[
		{
			"magFilter":9729,
			"minFilter":9987
		}
	],
	"buffers":[
		{
			"byteLength":19892,
			"uri":"Hair_BuzzedFemale.bin"
		}
	]
}
