{
	"asset":{
		"generator":"Khronos glTF Blender I/O v4.0.44",
		"version":"2.0"
	},
	"scene":0,
	"scenes":[
		{
			"name":"Scene",
			"nodes":[
				0
			]
		}
	],
	"nodes":[
		{
			"mesh":0,
			"name":"Hair_Buns",
			"rotation":[
				0.7071068286895752,
				0,
				0,
				0.7071068286895752
			],
			"scale":[
				0.009999999776482582,
				0.009999999776482582,
				0.009999999776482582
			]
		}
	],
	"materials":[
		{
			"doubleSided":true,
			"name":"MI_Hair_2",
			"normalTexture":{
				"index":0
			},
			"pbrMetallicRoughness":{
				"baseColorTexture":{
					"index":1
				},
				"metallicFactor":0,
				"roughnessFactor":0.7121212482452393
			}
		}
	],
	"meshes":[
		{
			"name":"NurbsCurve.056_Retopology.001",
			"primitives":[
				{
					"attributes":{
						"POSITION":0,
						"NORMAL":1,
						"TEXCOORD_0":2
					},
					"indices":3,
					"material":0
				}
			]
		}
	],
	"textures":[
		{
			"sampler":0,
			"source":0
		},
		{
			"sampler":0,
			"source":1
		}
	],
	"images":[
		{
			"mimeType":"image/png",
			"name":"T_Hair_2_Normal",
			"uri":"T_Hair_2_Normal.png"
		},
		{
			"mimeType":"image/png",
			"name":"T_Hair_2_BaseColor",
			"uri":"T_Hair_2_BaseColor.png"
		}
	],
	"accessors":[
		{
			"bufferView":0,
			"componentType":5126,
			"count":3502,
			"max":[
				15.07568359375,
				10.265965461730957,
				-153.00521850585938
			],
			"min":[
				-15.07568359375,
				-13.409524917602539,
				-177.9151611328125
			],
			"type":"VEC3"
		},
		{
			"bufferView":1,
			"componentType":5126,
			"count":3502,
			"type":"VEC3"
		},
		{
			"bufferView":2,
			"componentType":5126,
			"count":3502,
			"type":"VEC2"
		},
		{
			"bufferView":3,
			"componentType":5123,
			"count":9852,
			"type":"SCALAR"
		}
	],
	"bufferViews":[
		{
			"buffer":0,
			"byteLength":42024,
			"byteOffset":0,
			"target":34962
		},
		{
			"buffer":0,
			"byteLength":42024,
			"byteOffset":42024,
			"target":34962
		},
		{
			"buffer":0,
			"byteLength":28016,
			"byteOffset":84048,
			"target":34962
		},
		{
			"buffer":0,
			"byteLength":19704,
			"byteOffset":112064,
			"target":34963
		}
	],
	"samplers":[
		{
			"magFilter":9729,
			"minFilter":9987
		}
	],
	"buffers":[
		{
			"byteLength":131768,
			"uri":"Hair_Buns.bin"
		}
	]
}
