{
	"asset":{
		"generator":"Khronos glTF Blender I/O v4.3.47",
		"version":"2.0"
	},
	"scene":0,
	"scenes":[
		{
			"name":"Scene",
			"nodes":[
				66
			]
		}
	],
	"nodes":[
		{
			"name":"Head",
			"rotation":[
				-0.13207007944583893,
				0,
				0,
				0.991240382194519
			],
			"translation":[
				0,
				0.08285234868526459,
				9.313225746154785e-09
			]
		},
		{
			"children":[
				0
			],
			"name":"neck_01",
			"rotation":[
				0.25725916028022766,
				0,
				0,
				0.9663424491882324
			],
			"translation":[
				0,
				0.21509313583374023,
				1.862645149230957e-08
			]
		},
		{
			"name":"index_04_leaf_l",
			"rotation":[
				-4.656613761255812e-09,
				-1,
				-1.8664633572962157e-15,
				3.651776296464959e-06
			],
			"scale":[
				1,
				0.9999997019767761,
				1
			],
			"translation":[
				1.9281287677586079e-10,
				0.02411014772951603,
				1.6830044557991641e-07
			]
		},
		{
			"children":[
				2
			],
			"name":"index_03_l",
			"rotation":[
				-1.348770428677426e-09,
				3.689715200039245e-12,
				-0.00018570991232991219,
				1
			],
			"translation":[
				-1.6689227777533233e-09,
				0.027911463752388954,
				1.6598225727193494e-07
			]
		},
		{
			"children":[
				3
			],
			"name":"index_02_l",
			"rotation":[
				-1.721623910100334e-08,
				-3.9419649766614384e-08,
				-0.0005329284467734396,
				0.9999998807907104
			],
			"translation":[
				-3.374225343577564e-10,
				0.0326123908162117,
				1.3817563626616902e-07
			]
		},
		{
			"children":[
				4
			],
			"name":"index_01_l",
			"rotation":[
				-0.009757923893630505,
				0.7070369124412537,
				-0.0097578726708889,
				0.7070420384407043
			],
			"scale":[
				1,
				1.0000001192092896,
				1
			],
			"translation":[
				0.009400011971592903,
				0.11500009149312973,
				0.03249999135732651
			]
		},
		{
			"name":"middle_04_leaf_l",
			"rotation":[
				2.421438694000244e-08,
				-1,
				-9.97962698806934e-14,
				3.65177675121231e-06
			],
			"translation":[
				5.168658390175551e-09,
				0.030519818887114525,
				2.3142732175074343e-08
			]
		},
		{
			"children":[
				6
			],
			"name":"middle_03_l",
			"rotation":[
				-1.0311108411542591e-08,
				2.617175920427428e-11,
				-0.001419748761691153,
				0.9999989867210388
			],
			"scale":[
				0.9999999403953552,
				1,
				1
			],
			"translation":[
				3.3051037462428212e-09,
				0.03011666052043438,
				1.2451241104827204e-07
			]
		},
		{
			"children":[
				7
			],
			"name":"middle_02_l",
			"rotation":[
				1.5643285777855453e-08,
				-3.913748614081669e-08,
				0.0020527271553874016,
				0.9999979138374329
			],
			"scale":[
				0.9999999403953552,
				0.9999999403953552,
				0.9999999403953552
			],
			"translation":[
				1.090484147425741e-09,
				0.03752619028091431,
				1.5301162648029276e-07
			]
		},
		{
			"children":[
				8
			],
			"name":"middle_01_l",
			"rotation":[
				-0.013192507438361645,
				0.7069811820983887,
				-0.013192412443459034,
				0.7069862484931946
			],
			"scale":[
				0.9999999403953552,
				0.9999998807907104,
				0.9999999403953552
			],
			"translation":[
				0.0069999718107283115,
				0.11260004341602325,
				0.0069999960251152515
			]
		},
		{
			"name":"pinky_04_leaf_l",
			"rotation":[
				-2.2351745343485163e-08,
				-1,
				1.2562023090582214e-13,
				3.651776296464959e-06
			],
			"scale":[
				0.9999999403953552,
				0.9999999403953552,
				1
			],
			"translation":[
				1.033640728564933e-08,
				0.021523205563426018,
				-2.814113031490706e-07
			]
		},
		{
			"children":[
				10
			],
			"name":"pinky_03_l",
			"rotation":[
				3.383408886392658e-09,
				-9.627411715062983e-12,
				0.0004658793332055211,
				0.9999998807907104
			],
			"scale":[
				0.9999999403953552,
				0.9999999403953552,
				1
			],
			"translation":[
				2.8849171940237284e-09,
				0.02743077464401722,
				-3.729670083885139e-08
			]
		},
		{
			"children":[
				11
			],
			"name":"pinky_02_l",
			"rotation":[
				-1.035459185061427e-08,
				-3.897551081877282e-08,
				-0.0015674028545618057,
				0.9999988079071045
			],
			"translation":[
				-1.0922121873591095e-08,
				0.031630996614694595,
				7.067205842758995e-08
			]
		},
		{
			"children":[
				12
			],
			"name":"pinky_01_l",
			"rotation":[
				-0.015652360394597054,
				0.706930935382843,
				-0.01565224677324295,
				0.7069361209869385
			],
			"translation":[
				0.009000067599117756,
				0.0951000526547432,
				-0.042500000447034836
			]
		},
		{
			"name":"ring_04_leaf_l",
			"rotation":[
				1.1641533959050321e-08,
				-1,
				-4.1919619902033856e-14,
				3.651776296464959e-06
			],
			"scale":[
				1,
				0.9999997019767761,
				1
			],
			"translation":[
				-3.835339157376438e-09,
				0.029101530089974403,
				3.391749459069615e-08
			]
		},
		{
			"children":[
				14
			],
			"name":"ring_03_l",
			"rotation":[
				-2.4604773329883756e-08,
				6.235185284753086e-11,
				-0.003387601813301444,
				0.9999942779541016
			],
			"scale":[
				1,
				0.9999999403953552,
				1
			],
			"translation":[
				-8.026290743146092e-09,
				0.028300149366259575,
				1.1107826480838412e-07
			]
		},
		{
			"children":[
				15
			],
			"name":"ring_02_l",
			"rotation":[
				1.7517091777108362e-08,
				-3.9449915334444086e-08,
				0.0023997032549232244,
				0.9999971389770508
			],
			"translation":[
				-5.185938789509237e-09,
				0.0360012948513031,
				1.464196230926973e-07
			]
		},
		{
			"children":[
				16
			],
			"name":"ring_01_l",
			"rotation":[
				-0.0029462252277880907,
				0.7070980072021484,
				-0.0029462038073688745,
				0.7071032524108887
			],
			"scale":[
				0.9999998807907104,
				0.9999997019767761,
				0.9999998807907104
			],
			"translation":[
				0.00730002298951149,
				0.10620005428791046,
				-0.020400000736117363
			]
		},
		{
			"name":"thumb_04_leaf_l",
			"rotation":[
				2.2672955068969713e-08,
				0.4282083213329315,
				-1.3036950008427084e-07,
				0.9036800265312195
			],
			"scale":[
				0.9999998807907104,
				1,
				1
			],
			"translation":[
				-1.0710209608078003e-07,
				0.03459959849715233,
				6.51925802230835e-09
			]
		},
		{
			"children":[
				18
			],
			"name":"thumb_03_l",
			"rotation":[
				-0.0003726967261172831,
				2.6525931389187463e-05,
				0.00011462579277576879,
				0.9999999403953552
			],
			"scale":[
				1.0000001192092896,
				1,
				1
			],
			"translation":[
				3.5608536563813686e-08,
				0.03922773152589798,
				-5.168840289115906e-08
			]
		},
		{
			"children":[
				19
			],
			"name":"thumb_02_l",
			"rotation":[
				0.0008555729873478413,
				3.4565124224172905e-05,
				-0.0004891895223408937,
				0.9999995231628418
			],
			"scale":[
				1,
				0.9999999403953552,
				1
			],
			"translation":[
				-1.83063093572855e-07,
				0.039565373212099075,
				5.587935447692871e-09
			]
		},
		{
			"children":[
				20
			],
			"name":"thumb_01_l",
			"rotation":[
				0.30099350214004517,
				0.9291350841522217,
				0.21020177006721497,
				0.04388770833611488
			],
			"scale":[
				1,
				1.0000001192092896,
				1
			],
			"translation":[
				0.021399976685643196,
				0.027700087055563927,
				0.02740001305937767
			]
		},
		{
			"children":[
				5,
				9,
				13,
				17,
				21
			],
			"name":"hand_l",
			"rotation":[
				-0.015807554125785828,
				-1.1323515991534805e-06,
				-1.859292275696589e-08,
				0.9998750686645508
			],
			"scale":[
				1,
				1,
				0.9999999403953552
			],
			"translation":[
				8.156474962106586e-08,
				0.24042010307312012,
				-3.2514435588382185e-09
			]
		},
		{
			"children":[
				22
			],
			"name":"lowerarm_l",
			"rotation":[
				0.03093818761408329,
				4.2500738345552236e-05,
				-1.2440405043889768e-06,
				0.9995213150978088
			],
			"translation":[
				-4.025901034765411e-08,
				0.25111493468284607,
				-8.731149137020111e-11
			]
		},
		{
			"children":[
				23
			],
			"name":"upperarm_l",
			"rotation":[
				0.16515187919139862,
				0.6876330971717834,
				-0.16469810903072357,
				0.6875755786895752
			],
			"scale":[
				0.9999999403953552,
				1,
				1
			],
			"translation":[
				-0.009641071781516075,
				0.1883048117160797,
				-0.03967198729515076
			]
		},
		{
			"children":[
				24
			],
			"name":"clavicle_l",
			"rotation":[
				-0.5359424352645874,
				-0.3172530233860016,
				-0.3989512026309967,
				0.673018753528595
			],
			"translation":[
				0.03139999881386757,
				0.1737176477909088,
				0.06732845306396484
			]
		},
		{
			"name":"index_04_leaf_r",
			"rotation":[
				-4.656613761255812e-09,
				1,
				-9.069184307350635e-15,
				3.651776296464959e-06
			],
			"scale":[
				1,
				0.9999997019767761,
				1
			],
			"translation":[
				-1.9281287677586079e-10,
				0.02411014772951603,
				1.6830023241709569e-07
			]
		},
		{
			"children":[
				26
			],
			"name":"index_03_r",
			"rotation":[
				-1.3487808647738575e-09,
				-3.968936290732472e-12,
				0.00018570991232991219,
				1
			],
			"translation":[
				1.6707417671568692e-09,
				0.027911463752388954,
				1.659820298982595e-07
			]
		},
		{
			"children":[
				27
			],
			"name":"index_02_r",
			"rotation":[
				-4.891389959738035e-09,
				3.925104508084587e-08,
				0.0005329284467734396,
				0.9999998807907104
			],
			"translation":[
				-1.2369127944111824e-10,
				0.032612428069114685,
				1.5866616820403578e-07
			]
		},
		{
			"children":[
				28
			],
			"name":"index_01_r",
			"rotation":[
				-0.00975793320685625,
				-0.7070369720458984,
				0.009757863357663155,
				0.7070419788360596
			],
			"scale":[
				1,
				1.0000001192092896,
				1
			],
			"translation":[
				-0.00940000731498003,
				0.11500009149312973,
				0.032499995082616806
			]
		},
		{
			"name":"middle_04_leaf_r",
			"rotation":[
				2.421438694000244e-08,
				1,
				8.419702652098793e-14,
				3.65177675121231e-06
			],
			"translation":[
				-5.168658390175551e-09,
				0.030519818887114525,
				2.3141225824474532e-08
			]
		},
		{
			"children":[
				30
			],
			"name":"middle_03_r",
			"rotation":[
				-1.0311155484998835e-08,
				-2.69988770923435e-11,
				0.001419748761691153,
				0.9999989867210388
			],
			"scale":[
				0.9999999403953552,
				1,
				1
			],
			"translation":[
				-3.306013240944594e-09,
				0.03011666052043438,
				1.2451081943254394e-07
			]
		},
		{
			"children":[
				31
			],
			"name":"middle_02_r",
			"rotation":[
				1.3419549915738571e-08,
				3.920036917293146e-08,
				-0.0020527271553874016,
				0.9999979138374329
			],
			"scale":[
				0.9999999403953552,
				0.9999999403953552,
				0.9999999403953552
			],
			"translation":[
				-1.2823875294998288e-09,
				0.03752618655562401,
				1.4930063230167434e-07
			]
		},
		{
			"children":[
				32
			],
			"name":"middle_01_r",
			"rotation":[
				-0.013192505575716496,
				-0.7069811820983887,
				0.013192412443459034,
				0.7069862484931946
			],
			"scale":[
				0.9999999403953552,
				0.9999998807907104,
				0.9999999403953552
			],
			"translation":[
				-0.006999965291470289,
				0.11260004341602325,
				0.0069999974220991135
			]
		},
		{
			"name":"pinky_04_leaf_r",
			"rotation":[
				-2.2351745343485163e-08,
				1,
				-9.381222605383058e-14,
				3.651776296464959e-06
			],
			"scale":[
				0.9999999403953552,
				0.9999999403953552,
				1
			],
			"translation":[
				-1.0335497790947556e-08,
				0.02152320370078087,
				-2.814119568483875e-07
			]
		},
		{
			"children":[
				34
			],
			"name":"pinky_03_r",
			"rotation":[
				3.383400670742276e-09,
				9.110491007435773e-12,
				-0.0004658793332055211,
				0.9999998807907104
			],
			"scale":[
				0.9999999403953552,
				0.9999999403953552,
				1
			],
			"translation":[
				-2.8858266887255013e-09,
				0.02743077091872692,
				-3.729741138158715e-08
			]
		},
		{
			"children":[
				35
			],
			"name":"pinky_02_r",
			"rotation":[
				1.908002644768203e-09,
				3.8693851678317515e-08,
				0.0015674028545618057,
				0.9999988079071045
			],
			"translation":[
				4.2391548049636185e-09,
				0.03163096681237221,
				9.059564831659372e-08
			]
		},
		{
			"children":[
				36
			],
			"name":"pinky_01_r",
			"rotation":[
				-0.0156523697078228,
				-0.7069309949874878,
				0.015652237460017204,
				0.7069360613822937
			],
			"translation":[
				-0.009000054560601711,
				0.0951000526547432,
				-0.042500000447034836
			]
		},
		{
			"name":"ring_04_leaf_r",
			"rotation":[
				1.1641533959050321e-08,
				1,
				3.932434822109636e-14,
				3.651776296464959e-06
			],
			"scale":[
				1,
				0.9999997019767761,
				1
			],
			"translation":[
				3.835339157376438e-09,
				0.029101528227329254,
				3.391586744783126e-08
			]
		},
		{
			"children":[
				38
			],
			"name":"ring_03_r",
			"rotation":[
				-2.4604839055086813e-08,
				-5.959530785526468e-11,
				0.003387601813301444,
				0.9999942779541016
			],
			"scale":[
				1,
				0.9999999403953552,
				1
			],
			"translation":[
				8.026290743146092e-09,
				0.028300149366259575,
				1.1107695030432296e-07
			]
		},
		{
			"children":[
				39
			],
			"name":"ring_02_r",
			"rotation":[
				1.7020420628455213e-08,
				3.94586443519529e-08,
				-0.0023997037205845118,
				0.9999971389770508
			],
			"translation":[
				6.081791070755571e-09,
				0.0360012948513031,
				1.4559928729340754e-07
			]
		},
		{
			"children":[
				40
			],
			"name":"ring_01_r",
			"rotation":[
				-0.002946224994957447,
				-0.7070980668067932,
				0.002946204040199518,
				0.7071031928062439
			],
			"scale":[
				0.9999998807907104,
				0.9999997019767761,
				0.9999998807907104
			],
			"translation":[
				-0.007300012744963169,
				0.10620005428791046,
				-0.020400000736117363
			]
		},
		{
			"name":"thumb_04_leaf_r",
			"rotation":[
				2.2672949739899195e-08,
				-0.4282083213329315,
				1.8189894035458565e-07,
				0.9036800265312195
			],
			"scale":[
				0.9999999403953552,
				0.9999999403953552,
				1
			],
			"translation":[
				1.671724021434784e-07,
				0.03459971770644188,
				8.381903171539307e-09
			]
		},
		{
			"children":[
				42
			],
			"name":"thumb_03_r",
			"rotation":[
				-0.0003726781578734517,
				-2.651103204698302e-05,
				-0.00011462859401945025,
				0.9999999403953552
			],
			"scale":[
				1.0000001192092896,
				0.9999999403953552,
				0.9999998807907104
			],
			"translation":[
				-1.8476566765457392e-07,
				0.03922785073518753,
				-2.2351741790771484e-08
			]
		},
		{
			"children":[
				43
			],
			"name":"thumb_02_r",
			"rotation":[
				0.000855587946716696,
				-3.4503656934248284e-05,
				0.0004891885910183191,
				0.9999995231628418
			],
			"scale":[
				1,
				0.9999998807907104,
				0.9999998807907104
			],
			"translation":[
				-5.372567102313042e-08,
				0.03956543654203415,
				-2.60770320892334e-08
			]
		},
		{
			"children":[
				44
			],
			"name":"thumb_01_r",
			"rotation":[
				0.30099350214004517,
				-0.9291350841522217,
				-0.21020175516605377,
				0.04388761147856712
			],
			"scale":[
				1,
				1.0000001192092896,
				1
			],
			"translation":[
				-0.02139997109770775,
				0.027700087055563927,
				0.02740001119673252
			]
		},
		{
			"children":[
				29,
				33,
				37,
				41,
				45
			],
			"name":"hand_r",
			"rotation":[
				-0.015807554125785828,
				1.2515496337073273e-06,
				1.8592521300320186e-08,
				0.9998750686645508
			],
			"scale":[
				1,
				1,
				0.9999999403953552
			],
			"translation":[
				-9.193168182264344e-08,
				0.24042010307312012,
				-5.398987923399545e-09
			]
		},
		{
			"children":[
				46
			],
			"name":"lowerarm_r",
			"rotation":[
				0.03093818761408329,
				-4.256031024851836e-05,
				1.2421967312548077e-06,
				0.9995213150978088
			],
			"translation":[
				4.025901034765411e-08,
				0.25111493468284607,
				-8.731149137020111e-11
			]
		},
		{
			"children":[
				47
			],
			"name":"upperarm_r",
			"rotation":[
				0.16515187919139862,
				-0.6876330971717834,
				0.16469810903072357,
				0.6875755786895752
			],
			"scale":[
				0.9999999403953552,
				1,
				1
			],
			"translation":[
				0.009641071781516075,
				0.1883048117160797,
				-0.03967198729515076
			]
		},
		{
			"children":[
				48
			],
			"name":"clavicle_r",
			"rotation":[
				-0.5359424352645874,
				0.3172530233860016,
				0.3989512026309967,
				0.673018753528595
			],
			"translation":[
				-0.03139999881386757,
				0.1737176477909088,
				0.06732845306396484
			]
		},
		{
			"children":[
				1,
				25,
				49
			],
			"name":"spine_03",
			"rotation":[
				-0.12418898940086365,
				0,
				0,
				0.9922585487365723
			],
			"translation":[
				0,
				0.1331336796283722,
				0
			]
		},
		{
			"children":[
				50
			],
			"name":"spine_02",
			"rotation":[
				-0.03958535194396973,
				0,
				0,
				0.9992161989212036
			],
			"translation":[
				0,
				0.10634974390268326,
				-1.3969838619232178e-09
			]
		},
		{
			"children":[
				51
			],
			"name":"spine_01",
			"rotation":[
				-0.09185619652271271,
				0,
				0,
				0.9957723021507263
			],
			"translation":[
				0,
				0.1280922144651413,
				-3.259629011154175e-08
			]
		},
		{
			"name":"ball_leaf_l",
			"rotation":[
				1.4901161193847656e-08,
				-4.371139183945161e-08,
				6.513504428675462e-16,
				1
			],
			"translation":[
				-1.328826715329967e-09,
				0.07889983803033829,
				-2.1363266711205142e-10
			]
		},
		{
			"children":[
				53
			],
			"name":"ball_l",
			"rotation":[
				-1.0066750988357853e-08,
				-0.9731196165084839,
				0.23030038177967072,
				4.2536413502602954e-08
			],
			"scale":[
				1,
				1.000000238418579,
				1
			],
			"translation":[
				0,
				0.15907371044158936,
				-6.51925802230835e-09
			]
		},
		{
			"children":[
				54
			],
			"name":"foot_l",
			"rotation":[
				-0.5721680521965027,
				0,
				0,
				0.8201364278793335
			],
			"translation":[
				0,
				0.4587883949279785,
				5.587935447692871e-09
			]
		},
		{
			"children":[
				55
			],
			"name":"calf_l",
			"rotation":[
				0.05598893761634827,
				0,
				0,
				0.998431384563446
			],
			"translation":[
				-7.450580596923828e-09,
				0.4288000166416168,
				3.1723175197839737e-09
			]
		},
		{
			"children":[
				56
			],
			"name":"thigh_l",
			"rotation":[
				0.9898310303688049,
				0,
				0,
				0.14224845170974731
			],
			"scale":[
				1,
				1,
				1.0000019073486328
			],
			"translation":[
				0.09059999883174896,
				0.023176943883299828,
				0.0004878304898738861
			]
		},
		{
			"name":"ball_leaf_r",
			"rotation":[
				1.4901161193847656e-08,
				-4.371139183945161e-08,
				6.513504428675462e-16,
				1
			],
			"translation":[
				-1.328826715329967e-09,
				0.07889983803033829,
				-1.1364305052552481e-09
			]
		},
		{
			"children":[
				58
			],
			"name":"ball_r",
			"rotation":[
				-1.0066750988357853e-08,
				-0.9731196165084839,
				0.23030038177967072,
				4.2536413502602954e-08
			],
			"scale":[
				1,
				1.000000238418579,
				1
			],
			"translation":[
				0,
				0.15907371044158936,
				-6.51925802230835e-09
			]
		},
		{
			"children":[
				59
			],
			"name":"foot_r",
			"rotation":[
				-0.5721680521965027,
				0,
				0,
				0.8201364278793335
			],
			"translation":[
				0,
				0.4587883949279785,
				5.587935447692871e-09
			]
		},
		{
			"children":[
				60
			],
			"name":"calf_r",
			"rotation":[
				0.05598893761634827,
				0,
				0,
				0.998431384563446
			],
			"translation":[
				7.450580596923828e-09,
				0.4288000166416168,
				3.1723175197839737e-09
			]
		},
		{
			"children":[
				61
			],
			"name":"thigh_r",
			"rotation":[
				0.9898310303688049,
				0,
				0,
				0.14224845170974731
			],
			"scale":[
				1,
				1,
				1.0000019073486328
			],
			"translation":[
				-0.09059999883174896,
				0.023176943883299828,
				0.0004878304898738861
			]
		},
		{
			"children":[
				52,
				57,
				62
			],
			"name":"pelvis",
			"rotation":[
				0.8005710244178772,
				0,
				0,
				0.5992379188537598
			],
			"translation":[
				0,
				0.042999982833862305,
				0.9491000175476074
			]
		},
		{
			"children":[
				63
			],
			"name":"root",
			"rotation":[
				-0.7071067690849304,
				0,
				0,
				0.7071067690849304
			]
		},
		{
			"mesh":0,
			"name":"Hair_Beard",
			"skin":0
		},
		{
			"children":[
				65,
				64
			],
			"name":"Armature"
		}
	],
	"materials":[
		{
			"doubleSided":true,
			"name":"MI_Hair_1",
			"normalTexture":{
				"index":0
			},
			"pbrMetallicRoughness":{
				"baseColorTexture":{
					"index":1
				},
				"metallicFactor":0
			}
		}
	],
	"meshes":[
		{
			"name":"Plane.006",
			"primitives":[
				{
					"attributes":{
						"POSITION":0,
						"NORMAL":1,
						"TEXCOORD_0":2,
						"JOINTS_0":3,
						"WEIGHTS_0":4
					},
					"indices":5,
					"material":0
				}
			]
		}
	],
	"textures":[
		{
			"sampler":0,
			"source":0
		},
		{
			"sampler":0,
			"source":1
		}
	],
	"images":[
		{
			"mimeType":"image/png",
			"name":"T_Hair_1_Normal",
			"uri":"T_Hair_1_Normal.png"
		},
		{
			"mimeType":"image/png",
			"name":"T_Hair_1_BaseColor",
			"uri":"T_Hair_1_BaseColor.png"
		}
	],
	"skins":[
		{
			"inverseBindMatrices":6,
			"joints":[
				64,
				63,
				52,
				51,
				50,
				1,
				0,
				25,
				24,
				23,
				22,
				5,
				4,
				3,
				2,
				9,
				8,
				7,
				6,
				13,
				12,
				11,
				10,
				17,
				16,
				15,
				14,
				21,
				20,
				19,
				18,
				49,
				48,
				47,
				46,
				29,
				28,
				27,
				26,
				33,
				32,
				31,
				30,
				37,
				36,
				35,
				34,
				41,
				40,
				39,
				38,
				45,
				44,
				43,
				42,
				57,
				56,
				55,
				54,
				53,
				62,
				61,
				60,
				59,
				58
			],
			"name":"Armature"
		}
	],
	"accessors":[
		{
			"bufferView":0,
			"componentType":5126,
			"count":596,
			"max":[
				0.08075305074453354,
				1.6893515586853027,
				0.0968303382396698
			],
			"min":[
				-0.08075305074453354,
				1.549536108970642,
				-0.008104397915303707
			],
			"type":"VEC3"
		},
		{
			"bufferView":1,
			"componentType":5126,
			"count":596,
			"type":"VEC3"
		},
		{
			"bufferView":2,
			"componentType":5126,
			"count":596,
			"type":"VEC2"
		},
		{
			"bufferView":3,
			"componentType":5121,
			"count":596,
			"type":"VEC4"
		},
		{
			"bufferView":4,
			"componentType":5126,
			"count":596,
			"type":"VEC4"
		},
		{
			"bufferView":5,
			"componentType":5123,
			"count":3102,
			"type":"SCALAR"
		},
		{
			"bufferView":6,
			"componentType":5126,
			"count":65,
			"type":"MAT4"
		}
	],
	"bufferViews":[
		{
			"buffer":0,
			"byteLength":7152,
			"byteOffset":0,
			"target":34962
		},
		{
			"buffer":0,
			"byteLength":7152,
			"byteOffset":7152,
			"target":34962
		},
		{
			"buffer":0,
			"byteLength":4768,
			"byteOffset":14304,
			"target":34962
		},
		{
			"buffer":0,
			"byteLength":2384,
			"byteOffset":19072,
			"target":34962
		},
		{
			"buffer":0,
			"byteLength":9536,
			"byteOffset":21456,
			"target":34962
		},
		{
			"buffer":0,
			"byteLength":6204,
			"byteOffset":30992,
			"target":34963
		},
		{
			"buffer":0,
			"byteLength":4160,
			"byteOffset":37196
		}
	],
	"samplers":[
		{
			"magFilter":9729,
			"minFilter":9987
		}
	],
	"buffers":[
		{
			"byteLength":41356,
			"uri":"Hair_Beard.bin"
		}
	]
}
